<?xml version="1.0" encoding="UTF-8"?><!DOCTYPE svg PUBLIC "-//W3C//DTD SVG 1.1//EN" "http://www.w3.org/Graphics/SVG/1.1/DTD/svg11.dtd"><svg xmlns="http://www.w3.org/2000/svg" xmlns:xlink="http://www.w3.org/1999/xlink" version="1.1" id="Layer_1" x="0px" y="0px" viewBox="0 0 33 33" xml:space="preserve"><path fill="#ED6262" d="M24.303 5.237v9.01l-7.81 4.5v-.01l-7.79-4.49v-9.01l7.8-4.5z"/><path fill="#CD484B" d="M8.7 5.237L16.502.733l7.803 4.504-7.803 4.505L8.7 5.237z"/><path fill="#FFBD49" d="M32.103 18.747v9.01l-7.79 4.51h-.01l-7.8-4.51v-9.01l7.8-4.5z"/><path fill="#EC9821" d="M16.502 18.752l7.803-4.505 7.802 4.505-7.802 4.504-7.803-4.504z"/><path fill="#3AA2EB" d="M16.503 18.747v9.01l-7.8 4.51-7.81-4.51v-9.01l7.81-4.5z"/><path fill="#0F71C7" d="M.898 18.752L8.7 14.247l7.802 4.505L8.7 23.256.898 18.752z"/><path fill="#F9B548" d="M32.103 24.697v3.06l-7.79 4.51-1.96-3.39c-.17-.3-.06-.68.25-.84.3-.15.65-.02.82.26l.45.79c.15.25.47.32.72.17h.01v-.01a.51.51 0 0 0 .22-.7l-.5-.86c-.17-.3-.05-.68.25-.84.3-.15.66-.02.82.26l.42.73c.179.309.59.34.74.19.236-.079.382-.433.22-.71l-.56-.98a.59.59 0 0 1 .25-.84c.29-.15.65-.02.81.27l.94 1.62c.14.24.45.31.68.16a.51.51 0 0 0 .22-.72l-.9-1.56a.618.618 0 0 1 .23-.83c.28-.17.64-.07.82.21l.6 1.05c.17.29.53.42.82.27.31-.16.42-.54.25-.84l-.9-1.57c-.18-.3-.06-.69.25-.85.29-.14.65-.01.81.27.051.089.944 1.654 1.01 1.72z"/><path fill="#EF6A6A" d="M24.303 11.197v3.05l-7.81 4.5v-.01l-1.95-3.37c-.17-.3-.06-.69.25-.85.29-.14.65-.01.82.27l.45.79c.15.25.47.32.72.17v-.01h.01c.26-.14.36-.45.21-.71l-.49-.85c-.17-.3-.06-.69.25-.85.3-.15.66-.02.82.27l.42.73c.15.25.48.34.73.19h.01c.309-.205.35-.488.22-.71l-.57-.98c-.17-.3-.06-.69.25-.85.3-.15.65-.01.82.27l.93 1.62c.14.24.46.32.69.16.32-.213.353-.483.22-.71l-.9-1.57a.592.592 0 0 1 .22-.82c.29-.17.65-.07.82.2l.61 1.06c.17.28.53.42.82.27.31-.16.42-.55.25-.85l-.91-1.57c-.17-.3-.06-.68.25-.84.3-.15.66-.02.82.27.064.111.938 1.649 1.02 1.73z"/><path fill="#41ACEF" d="M10.663 28.877l-1.96 3.39-7.81-4.51v-3.04c.04-.03.07-.07.09-.11l.94-1.63c.16-.28.52-.41.81-.27.31.16.42.55.25.85l-.9 1.57c-.18.3-.06.68.25.84.29.15.65.02.81-.27l.61-1.05c.17-.28.54-.38.82-.21.29.17.39.54.23.83l-.91 1.56c-.14.25-.05.56.19.7.349.175.588.087.72-.14l.94-1.62c.16-.29.52-.42.81-.27.31.16.43.54.25.84l-.56.98c-.162.277-.016.631.22.71v.01c.26.15.59.06.74-.2l.42-.73a.63.63 0 0 1 .82-.26c.3.16.42.54.25.84l-.5.86a.51.51 0 0 0 .22.7v.01h.01c.25.15.57.08.72-.17l.45-.79a.63.63 0 0 1 .82-.26c.31.16.42.54.25.84z"/><metadata><rdf:RDF xmlns:rdf="http://www.w3.org/1999/02/22-rdf-syntax-ns#" xmlns:rdfs="http://www.w3.org/2000/01/rdf-schema#" xmlns:dc="http://purl.org/dc/elements/1.1/"><rdf:Description about="https://iconscout.com/legal#licenses" dc:publisher="Iconscout" dc:date="2018-01-04" dc:format="image/svg+xml" dc:language="en"><dc:creator><rdf:Bag><rdf:li>Vectors Market</rdf:li></rdf:Bag></dc:creator></rdf:Description></rdf:RDF></metadata></svg>