<svg xmlns="http://www.w3.org/2000/svg" width="361" height="119" viewBox="0 0 361 119">
  <desc>Rapid Build UI - Logo</desc>
  <g fill="none" fill-rule="evenodd">
    <g transform="translate(0 6)">
      <path fill="#374551" d="M13.4445599,56.7352438 L30.7775393,39.4022643 L73.4744914,82.0992164 L30.0150938,125.558614 L12.8583537,108.401874 L38.9847719,82.2754558 L13.4445599,56.7352438 Z" transform="rotate(90 43.46 82.48)"/>
      <path fill="#D0021B" d="M29.7380005,25.5727831 L43.2549262,39.0897089 L56.247853,26.0967821 L68.9000269,38.748956 L42.2636219,65.385361 L16.0945222,39.2162614 L29.7380005,25.5727831 Z"/>
      <polygon fill="#D0021B" points="31.487 5.639 54.287 5.639 54.287 28.039 31.487 28.039" transform="rotate(-45 42.887 16.84)"/>
    </g>
    <path fill="#374551" fill-rule="nonzero" d="M136.857,101.824 C136.857,109.998 132.343,115 121.302,115 L103.063,115 L103.063,69.25 L120.814,69.25 C130.391,69.25 135.149,73.459 135.149,80.84 C135.149,86.147 132.709,89.258 128.988,90.722 L128.988,90.844 C134.051,92.247 136.857,95.846 136.857,101.824 Z M128.439,101.153 C128.439,96.7 126.304,94.748 121.18,94.748 L111.176,94.748 L111.176,107.924 L121.363,107.924 C126.06,107.924 128.439,106.277 128.439,101.153 Z M127.097,82.365 C127.097,78.095 125.084,76.509 120.509,76.509 L111.176,76.509 L111.176,88.343 L120.875,88.343 C125.145,88.343 127.097,86.452 127.097,82.365 Z M179.862,69.25 L179.862,98.591 C179.862,110.303 173.64,115.854 161.928,115.854 C150.277,115.854 143.933,110.364 143.933,98.591 L143.933,69.25 L152.29,69.25 L152.29,98.53 C152.29,105.118 155.34,108.046 161.928,108.046 C168.516,108.046 171.444,105.118 171.444,98.53 L171.444,69.25 L179.862,69.25 Z M189.988,115 L189.988,69.25 L198.528,69.25 L198.528,115 L189.988,115 Z M217.865,107.253 L237.812,107.253 L237.629,115 L209.386,115 L209.386,69.25 L217.865,69.25 L217.865,107.253 Z M280.817,91.942 C280.817,108.534 274.168,115 260.809,115 L244.217,115 L244.217,69.25 L260.687,69.25 C274.9,69.25 280.817,76.021 280.817,91.942 Z M272.033,91.881 C272.033,80.047 268.861,76.997 260.626,76.997 L252.635,76.997 L252.635,107.314 L260.626,107.314 C268.556,107.314 272.033,104.569 272.033,91.881 Z M341.451,69.25 L341.451,98.591 C341.451,110.303 335.229,115.854 323.517,115.854 C311.866,115.854 305.522,110.364 305.522,98.591 L305.522,69.25 L313.879,69.25 L313.879,98.53 C313.879,105.118 316.929,108.046 323.517,108.046 C330.105,108.046 333.033,105.118 333.033,98.53 L333.033,69.25 L341.451,69.25 Z M351.577,115 L351.577,69.25 L360.117,69.25 L360.117,115 L351.577,115 Z"/>
    <path fill="#D0021B" fill-rule="nonzero" d="M110.036,50 L104.146,50 L104.146,13.296 L108.858,12.986 L109.354,20.922 L109.478,20.922 C111.772,15.59 115.802,12.49 120.824,12.49 C122.188,12.49 123.49,12.676 124.482,12.986 L124.11,18.938 C122.994,18.566 121.754,18.442 120.452,18.442 C114.686,18.442 110.036,23.34 110.036,31.276 L110.036,50 Z M151.948,50 L151.39,45.474 L151.204,45.412 C149.034,48.574 145.004,50.558 140.23,50.558 C133.472,50.558 128.884,47.024 128.884,38.716 C128.884,31.772 133.348,27.494 142.152,27.494 C145.314,27.494 148.352,28.114 150.646,28.92 L150.646,25.262 C150.646,19.434 148.042,17.388 142.028,17.388 C138.122,17.388 134.96,18.07 131.674,19.62 L131.116,14.722 C134.65,13.11 138.618,12.304 143.02,12.304 C152.754,12.304 156.412,16.396 156.412,26.13 L156.412,50 L151.948,50 Z M150.584,39.522 L150.584,33.136 C149.654,32.578 146.926,31.772 143.206,31.772 C137.068,31.772 134.402,34.252 134.402,38.654 C134.402,43.924 137.564,45.722 141.842,45.722 C146.43,45.722 150.584,42.622 150.584,39.522 Z M196.712,31.462 C196.712,45.102 191.132,50.682 182.266,50.682 C178.36,50.682 174.764,49.69 172.222,46.652 L172.098,46.714 L172.16,51.736 L172.16,59.176 L166.146,59.176 L166.146,13.234 L170.362,12.924 L171.602,16.768 C174.268,14.04 178.112,12.428 182.576,12.428 C191.628,12.428 196.712,17.14 196.712,31.462 Z M190.636,31.462 C190.636,20.736 187.35,17.822 181.15,17.822 C177.182,17.822 174.082,19.372 172.16,22.162 L172.16,41.134 C173.586,43.552 176.5,45.66 180.84,45.66 C186.606,45.66 190.636,42.87 190.636,31.462 Z M212.336,50 L206.446,50 L206.446,13.234 L212.336,12.924 L212.336,50 Z M213.204,3.686 C213.204,5.856 211.964,6.848 209.422,6.848 C206.88,6.848 205.64,6.042 205.64,3.686 C205.64,1.64 206.88,0.524 209.422,0.524 C211.964,0.524 213.204,1.64 213.204,3.686 Z M252.698,50 L248.172,50 L247.428,46.156 L247.242,46.094 C244.948,49.132 241.29,50.744 236.33,50.744 C226.348,50.744 222.132,44.668 222.132,31.462 C222.132,18.938 226.534,12.366 236.392,12.366 C240.484,12.366 244.204,13.792 246.808,16.52 L246.932,16.458 L246.808,11.498 L246.808,1.082 L252.698,0.71 L252.698,50 Z M246.808,41.32 L246.808,22.038 C245.258,19.496 241.972,17.822 238.004,17.822 C230.812,17.822 228.208,21.666 228.208,31.71 C228.208,42.064 230.564,45.846 237.942,45.846 C243.088,45.846 245.754,43.304 246.808,41.32 Z"/>
  </g>
</svg>