<?xml version="1.0" encoding="UTF-8"?>
<svg width="361px" height="119px" viewBox="0 0 361 119" version="1.1" xmlns="http://www.w3.org/2000/svg" xmlns:xlink="http://www.w3.org/1999/xlink">
    <!-- Generator: Sketch 49.3 (51167) - http://www.bohemiancoding.com/sketch -->
    <title>rapid-build-ui-logo</title>
    <desc>Created with Sketch.</desc>
    <defs></defs>
    <g id="Pyramid" stroke="none" stroke-width="1" fill="none" fill-rule="evenodd">
        <g id="rapid-build-ui-logo" transform="translate(0.000000, -11.000000)">
            <g id="rapid-build-ui-mini-logo" transform="translate(0.000000, 18.000000)">
                <g transform="translate(0.000000, -1.000000)">
                    <path d="M13.4445599,56.7352438 L30.7775393,39.4022643 L73.4744914,82.0992164 L30.0150938,125.558614 L12.8583537,108.401874 L38.9847719,82.2754558 L13.4445599,56.7352438 Z" id="Combined-Shape" fill="#374551" transform="translate(43.459398, 82.480439) rotate(-270.000000) translate(-43.459398, -82.480439) "></path>
                    <path d="M29.7380005,25.5727831 L43.2549262,39.0897089 L56.247853,26.0967821 L68.9000269,38.748956 L42.2636219,65.385361 L16.0945222,39.2162614 L29.7380005,25.5727831 Z" id="Combined-Shape" fill="#D0021B"></path>
                    <rect id="Rectangle" fill="#D0021B" transform="translate(42.887252, 16.839192) rotate(-45.000000) translate(-42.887252, -16.839192) " x="31.487252" y="5.6391919" width="22.8" height="22.4"></rect>
                </g>
            </g>
            <g id="text" transform="translate(98.000000, 0.000000)">
                <path d="M38.857,112.824 C38.857,120.998 34.343,126 23.302,126 L5.063,126 L5.063,80.25 L22.814,80.25 C32.391,80.25 37.149,84.459 37.149,91.84 C37.149,97.147 34.709,100.258 30.988,101.722 L30.988,101.844 C36.051,103.247 38.857,106.846 38.857,112.824 Z M30.439,112.153 C30.439,107.7 28.304,105.748 23.18,105.748 L13.176,105.748 L13.176,118.924 L23.363,118.924 C28.06,118.924 30.439,117.277 30.439,112.153 Z M29.097,93.365 C29.097,89.095 27.084,87.509 22.509,87.509 L13.176,87.509 L13.176,99.343 L22.875,99.343 C27.145,99.343 29.097,97.452 29.097,93.365 Z M81.862,80.25 L81.862,109.591 C81.862,121.303 75.64,126.854 63.928,126.854 C52.277,126.854 45.933,121.364 45.933,109.591 L45.933,80.25 L54.29,80.25 L54.29,109.53 C54.29,116.118 57.34,119.046 63.928,119.046 C70.516,119.046 73.444,116.118 73.444,109.53 L73.444,80.25 L81.862,80.25 Z M91.988,126 L91.988,80.25 L100.528,80.25 L100.528,126 L91.988,126 Z M119.865,118.253 L139.812,118.253 L139.629,126 L111.386,126 L111.386,80.25 L119.865,80.25 L119.865,118.253 Z M182.817,102.942 C182.817,119.534 176.168,126 162.809,126 L146.217,126 L146.217,80.25 L162.687,80.25 C176.9,80.25 182.817,87.021 182.817,102.942 Z M174.033,102.881 C174.033,91.047 170.861,87.997 162.626,87.997 L154.635,87.997 L154.635,118.314 L162.626,118.314 C170.556,118.314 174.033,115.569 174.033,102.881 Z M243.451,80.25 L243.451,109.591 C243.451,121.303 237.229,126.854 225.517,126.854 C213.866,126.854 207.522,121.364 207.522,109.591 L207.522,80.25 L215.879,80.25 L215.879,109.53 C215.879,116.118 218.929,119.046 225.517,119.046 C232.105,119.046 235.033,116.118 235.033,109.53 L235.033,80.25 L243.451,80.25 Z M253.577,126 L253.577,80.25 L262.117,80.25 L262.117,126 L253.577,126 Z" id="Build-UI" fill="#374551"></path>
                <path d="M12.036,61 L6.146,61 L6.146,24.296 L10.858,23.986 L11.354,31.922 L11.478,31.922 C13.772,26.59 17.802,23.49 22.824,23.49 C24.188,23.49 25.49,23.676 26.482,23.986 L26.11,29.938 C24.994,29.566 23.754,29.442 22.452,29.442 C16.686,29.442 12.036,34.34 12.036,42.276 L12.036,61 Z M53.948,61 L53.39,56.474 L53.204,56.412 C51.034,59.574 47.004,61.558 42.23,61.558 C35.472,61.558 30.884,58.024 30.884,49.716 C30.884,42.772 35.348,38.494 44.152,38.494 C47.314,38.494 50.352,39.114 52.646,39.92 L52.646,36.262 C52.646,30.434 50.042,28.388 44.028,28.388 C40.122,28.388 36.96,29.07 33.674,30.62 L33.116,25.722 C36.65,24.11 40.618,23.304 45.02,23.304 C54.754,23.304 58.412,27.396 58.412,37.13 L58.412,61 L53.948,61 Z M52.584,50.522 L52.584,44.136 C51.654,43.578 48.926,42.772 45.206,42.772 C39.068,42.772 36.402,45.252 36.402,49.654 C36.402,54.924 39.564,56.722 43.842,56.722 C48.43,56.722 52.584,53.622 52.584,50.522 Z M98.712,42.462 C98.712,56.102 93.132,61.682 84.266,61.682 C80.36,61.682 76.764,60.69 74.222,57.652 L74.098,57.714 L74.16,62.736 L74.16,70.176 L68.146,70.176 L68.146,24.234 L72.362,23.924 L73.602,27.768 C76.268,25.04 80.112,23.428 84.576,23.428 C93.628,23.428 98.712,28.14 98.712,42.462 Z M92.636,42.462 C92.636,31.736 89.35,28.822 83.15,28.822 C79.182,28.822 76.082,30.372 74.16,33.162 L74.16,52.134 C75.586,54.552 78.5,56.66 82.84,56.66 C88.606,56.66 92.636,53.87 92.636,42.462 Z M114.336,61 L108.446,61 L108.446,24.234 L114.336,23.924 L114.336,61 Z M115.204,14.686 C115.204,16.856 113.964,17.848 111.422,17.848 C108.88,17.848 107.64,17.042 107.64,14.686 C107.64,12.64 108.88,11.524 111.422,11.524 C113.964,11.524 115.204,12.64 115.204,14.686 Z M154.698,61 L150.172,61 L149.428,57.156 L149.242,57.094 C146.948,60.132 143.29,61.744 138.33,61.744 C128.348,61.744 124.132,55.668 124.132,42.462 C124.132,29.938 128.534,23.366 138.392,23.366 C142.484,23.366 146.204,24.792 148.808,27.52 L148.932,27.458 L148.808,22.498 L148.808,12.082 L154.698,11.71 L154.698,61 Z M148.808,52.32 L148.808,33.038 C147.258,30.496 143.972,28.822 140.004,28.822 C132.812,28.822 130.208,32.666 130.208,42.71 C130.208,53.064 132.564,56.846 139.942,56.846 C145.088,56.846 147.754,54.304 148.808,52.32 Z" id="Rapid" fill="#D0021B"></path>
            </g>
        </g>
    </g>
</svg>